<svg width="22" height="20" viewBox="0 0 22 20" fill="none" xmlns="http://www.w3.org/2000/svg">
<path d="M7.96173 17.0513L8.42604 16.4623L7.96173 17.0513ZM11 3.64101L10.4596 4.16111C10.601 4.30801 10.7961 4.39101 11 4.39101C11.2039 4.39101 11.399 4.30801 11.5404 4.16111L11 3.64101ZM14.0383 17.0513L14.5026 17.6403L14.0383 17.0513ZM8.42604 16.4623C6.91039 15.2674 5.25307 14.1006 3.93829 12.6202C2.64922 11.1686 1.75 9.47488 1.75 7.27748H0.25C0.25 9.94301 1.3605 11.9764 2.81672 13.6162C4.24722 15.227 6.07077 16.5156 7.49742 17.6403L8.42604 16.4623ZM1.75 7.27748C1.75 5.12661 2.96537 3.3229 4.62436 2.56457C6.23607 1.82786 8.40166 2.02296 10.4596 4.16111L11.5404 3.12091C9.0985 0.583902 6.26409 0.165767 4.00076 1.20034C1.78471 2.2133 0.25 4.56541 0.25 7.27748H1.75ZM7.49742 17.6403C8.00965 18.0441 8.55954 18.4747 9.11682 18.8003C9.67386 19.1258 10.3096 19.3904 11 19.3904V17.8904C10.6904 17.8904 10.3261 17.7696 9.87361 17.5052C9.42132 17.2409 8.95208 16.8769 8.42604 16.4623L7.49742 17.6403ZM14.5026 17.6403C15.9292 16.5156 17.7528 15.227 19.1833 13.6162C20.6395 11.9764 21.75 9.94301 21.75 7.27748H20.25C20.25 9.47488 19.3508 11.1686 18.0617 12.6202C16.7469 14.1006 15.0896 15.2674 13.574 16.4623L14.5026 17.6403ZM21.75 7.27748C21.75 4.56541 20.2153 2.2133 17.9992 1.20034C15.7359 0.165767 12.9015 0.583902 10.4596 3.12091L11.5404 4.16111C13.5983 2.02296 15.7639 1.82786 17.3756 2.56457C19.0346 3.3229 20.25 5.12661 20.25 7.27748H21.75ZM13.574 16.4623C13.0479 16.8769 12.5787 17.2409 12.1264 17.5052C11.6739 17.7696 11.3096 17.8904 11 17.8904V19.3904C11.6904 19.3904 12.3261 19.1258 12.8832 18.8003C13.4405 18.4747 13.9903 18.0441 14.5026 17.6403L13.574 16.4623Z" fill="#28353D" fill-opacity="0.7"/>
</svg>
